<svg width="41" height="41" viewBox="0 0 41 41" fill="none" xmlns="http://www.w3.org/2000/svg">
<g clip-path="url(#clip0_5_18)">
<path d="M34.338 7.65722C31.7782 6.48271 29.0343 5.61773 26.165 5.12249C26.1131 5.11245 26.0612 5.13755 26.0328 5.1844C25.6798 5.8118 25.2883 6.63162 25.0156 7.27409C21.9287 6.81231 18.8586 6.81231 15.8353 7.27409C15.5626 6.61656 15.156 5.8118 14.803 5.1844C14.7746 5.13755 14.7227 5.11413 14.6708 5.12249C11.8032 5.61605 9.0593 6.48104 6.4978 7.65722C6.47605 7.66559 6.45597 7.68232 6.44426 7.7024C1.23928 15.4789 -0.187867 23.0647 0.511485 30.5568C0.514831 30.5936 0.534908 30.6287 0.563351 30.6505C3.9982 33.1735 7.32431 34.7044 10.5902 35.7183C10.642 35.735 10.6973 35.7149 10.7307 35.6714C11.5037 34.6174 12.1913 33.5048 12.7819 32.3353C12.8171 32.2667 12.7836 32.1847 12.7117 32.158C11.6191 31.743 10.5801 31.2377 9.57963 30.6656C9.501 30.6187 9.4943 30.5066 9.56625 30.4514C9.77706 30.2941 9.98787 30.1302 10.1886 29.9645C10.2254 29.9344 10.2756 29.9277 10.3191 29.9478C16.891 32.9476 24.005 32.9476 30.4983 29.9478C30.5418 29.9277 30.592 29.9327 30.6304 29.9645C30.8312 30.1302 31.042 30.2958 31.2545 30.4531C31.3281 30.5066 31.3231 30.6204 31.2428 30.6672C30.2423 31.2511 29.2033 31.7464 28.1091 32.158C28.0372 32.1847 28.007 32.2684 28.0405 32.337C28.6428 33.5048 29.3321 34.6174 30.09 35.6714C30.1218 35.7166 30.1787 35.735 30.2306 35.72C33.5115 34.7044 36.8393 33.1735 40.2725 30.6522C40.3026 30.6304 40.321 30.597 40.3243 30.5601C41.1609 21.8986 38.9223 14.3747 34.3882 7.70574C34.3798 7.68232 34.3598 7.66559 34.338 7.65722ZM13.764 25.996C11.7848 25.996 10.1552 24.179 10.1552 21.9488C10.1552 19.7185 11.753 17.9016 13.764 17.9016C15.7901 17.9016 17.4047 19.7336 17.3729 21.9488C17.3729 24.1807 15.7734 25.996 13.764 25.996ZM27.1069 25.996C25.1293 25.996 23.4981 24.179 23.4981 21.9488C23.4981 19.7185 25.0959 17.9016 27.1069 17.9016C29.133 17.9016 30.7476 19.7336 30.7158 21.9488C30.7158 24.1807 29.133 25.996 27.1069 25.996Z" fill="white"/>
</g>
<defs>
<clipPath id="clip0_5_18">
<rect width="40.1542" height="40.1542" fill="white" transform="translate(0 0.422913)"/>
</clipPath>
</defs>
</svg>
