<svg width="41" height="41" viewBox="0 0 41 41" fill="none" xmlns="http://www.w3.org/2000/svg">
<g clip-path="url(#clip0_5_23)">
<path d="M20.9867 3.96305C26.3473 3.96305 26.9831 3.98312 29.0996 4.08016C31.288 4.18055 33.5416 4.67913 35.1361 6.27358C36.7456 7.88309 37.2291 10.115 37.3295 12.3101C37.4265 14.4265 37.4466 15.0623 37.4466 20.4229C37.4466 25.7835 37.4265 26.4193 37.3295 28.5357C37.2308 30.7124 36.7205 32.9878 35.1361 34.5722C33.5266 36.1817 31.2963 36.6653 29.0996 36.7656C26.9831 36.8627 26.3473 36.8828 20.9867 36.8828C15.6262 36.8828 14.9904 36.8627 12.8739 36.7656C10.714 36.6669 8.40846 36.1449 6.83743 34.5722C5.23628 32.9711 4.74439 30.7174 4.644 28.5357C4.54697 26.4193 4.52689 25.7835 4.52689 20.4229C4.52689 15.0623 4.54697 14.4265 4.644 12.3101C4.74272 10.1418 5.25803 7.85298 6.83743 6.27358C8.44359 4.66742 10.6839 4.18055 12.8739 4.08016C14.9904 3.98312 15.6262 3.96305 20.9867 3.96305ZM20.9867 0.345825C15.5341 0.345825 14.8499 0.369248 12.7083 0.466288C9.60472 0.6085 6.52288 1.47181 4.27927 3.71543C2.02729 5.96741 1.17234 9.04255 1.03013 12.1445C0.933091 14.286 0.909668 14.9703 0.909668 20.4229C0.909668 25.8755 0.933091 26.5598 1.03013 28.7014C1.17234 31.8016 2.039 34.8918 4.27927 37.1304C6.52958 39.3807 9.60974 40.2373 12.7083 40.3795C14.8499 40.4766 15.5341 40.5 20.9867 40.5C26.4393 40.5 27.1236 40.4766 29.2652 40.3795C32.3671 40.2373 35.4523 39.3723 37.6942 37.1304C39.9479 34.8767 40.8011 31.8033 40.9434 28.7014C41.0404 26.5598 41.0638 25.8755 41.0638 20.4229C41.0638 14.9703 41.0404 14.286 40.9434 12.1445C40.8011 9.04087 39.9362 5.95737 37.6942 3.71543C35.4473 1.46847 32.3587 0.606827 29.2652 0.466288C27.1236 0.369248 26.4393 0.345825 20.9867 0.345825Z" fill="white"/>
<path d="M20.9866 10.1133C15.2931 10.1133 10.677 14.7294 10.677 20.4229C10.677 26.1164 15.2931 30.7325 20.9866 30.7325C26.6801 30.7325 31.2962 26.1164 31.2962 20.4229C31.2962 14.7294 26.6801 10.1133 20.9866 10.1133ZM20.9866 27.1153C17.2907 27.1153 14.2942 24.1188 14.2942 20.4229C14.2942 16.7271 17.2907 13.7306 20.9866 13.7306C24.6824 13.7306 27.6789 16.7271 27.6789 20.4229C27.6789 24.1188 24.6824 27.1153 20.9866 27.1153Z" fill="white"/>
<path d="M31.7044 12.1144C33.035 12.1144 34.1137 11.0357 34.1137 9.70512C34.1137 8.37453 33.035 7.29587 31.7044 7.29587C30.3738 7.29587 29.2952 8.37453 29.2952 9.70512C29.2952 11.0357 30.3738 12.1144 31.7044 12.1144Z" fill="white"/>
</g>
<defs>
<clipPath id="clip0_5_23">
<rect width="40.1542" height="40.1542" fill="white" transform="translate(0.563965 0.422913)"/>
</clipPath>
</defs>
</svg>
