<svg width="41" height="41" viewBox="0 0 41 41" fill="none" xmlns="http://www.w3.org/2000/svg">
<g clip-path="url(#clip0_5_21)">
<path d="M36.6713 12.2315C36.6947 12.5845 36.6947 12.9392 36.6947 13.2956C36.6947 24.1824 28.4062 36.7356 13.2547 36.7356V36.7289C8.77922 36.7356 4.39573 35.454 0.62793 33.0364C1.27876 33.115 1.93294 33.1535 2.58879 33.1552C6.2997 33.1585 9.90354 31.9137 12.8197 29.6216C9.29454 29.5547 6.20267 27.2558 5.12352 23.8996C6.35826 24.1372 7.62981 24.0887 8.8428 23.7591C4.99804 22.9828 2.2341 19.6048 2.2341 15.6831C2.2341 15.6479 2.2341 15.6128 2.2341 15.5793C3.38016 16.2185 4.66175 16.5715 5.97345 16.61C2.35289 14.1923 1.23526 9.3772 3.42199 5.61275C7.60471 10.7592 13.7767 13.8878 20.4005 14.2208C19.7363 11.3598 20.6448 8.36163 22.783 6.34891C26.1007 3.22859 31.3191 3.38921 34.4394 6.70695C36.2848 6.34389 38.0533 5.66628 39.6712 4.7076C39.0555 6.61493 37.7689 8.23448 36.0489 9.2651C37.6835 9.06935 39.278 8.63267 40.7821 7.96678C39.6762 9.62147 38.2842 11.0653 36.6713 12.2315Z" fill="white"/>
</g>
<defs>
<clipPath id="clip0_5_21">
<rect width="40.1542" height="40.1542" fill="white" transform="translate(0.281982 0.422913)"/>
</clipPath>
</defs>
</svg>
