<svg width="41" height="41" viewBox="0 0 41 41" fill="none" xmlns="http://www.w3.org/2000/svg">
<g clip-path="url(#clip0_5_15)">
<path d="M40.5059 10.6956C40.0441 8.95721 38.6839 7.58695 36.9556 7.12183C33.8253 6.2786 21.2687 6.27859 21.2687 6.27859C21.2687 6.27859 8.71219 6.2786 5.58016 7.12183C3.85354 7.58695 2.49331 8.95554 2.03154 10.6956C1.19165 13.8477 1.19165 20.4229 1.19165 20.4229C1.19165 20.4229 1.19165 26.9981 2.03154 30.1502C2.49331 31.8886 3.85354 33.2588 5.58184 33.724C8.71219 34.5672 21.2687 34.5672 21.2687 34.5672C21.2687 34.5672 33.8253 34.5672 36.9573 33.724C38.6839 33.2588 40.0441 31.8903 40.5076 30.1502C41.3458 26.9981 41.3458 20.4229 41.3458 20.4229C41.3458 20.4229 41.3458 13.8477 40.5059 10.6956ZM17.163 26.3942V14.4516L27.6566 20.4229L17.163 26.3942Z" fill="white"/>
</g>
<defs>
<clipPath id="clip0_5_15">
<rect width="40.1542" height="40.1542" fill="white" transform="translate(0.845947 0.422913)"/>
</clipPath>
</defs>
</svg>
