<svg width="206" height="208" viewBox="0 0 206 208" fill="none" xmlns="http://www.w3.org/2000/svg">
<g style="mix-blend-mode:soft-light">
<circle cx="82.5774" cy="56.3255" r="6.80585" transform="rotate(21 82.5774 56.3255)" fill="#D9D9D9"/>
<circle cx="95.8704" cy="21.6965" r="6.80585" transform="rotate(21 95.8704 21.6965)" fill="#D9D9D9"/>
<circle cx="69.2847" cy="90.9544" r="6.80585" transform="rotate(21 69.2847 90.9544)" fill="#D9D9D9"/>
<circle cx="55.992" cy="125.583" r="6.80585" transform="rotate(21 55.992 125.583)" fill="#D9D9D9"/>
<circle cx="116.146" cy="69.2114" r="6.80585" transform="rotate(21 116.146 69.2114)" fill="#D9D9D9"/>
<circle cx="169.99" cy="129.612" r="6.80585" transform="rotate(21 169.99 129.612)" fill="#D9D9D9"/>
<circle cx="109.836" cy="185.984" r="6.80585" transform="rotate(21 109.836 185.984)" fill="#D9D9D9"/>
<circle cx="35.7161" cy="78.0687" r="6.80585" transform="rotate(21 35.7161 78.0687)" fill="#D9D9D9"/>
<circle cx="22.4234" cy="112.698" r="6.80585" transform="rotate(21 22.4234 112.698)" fill="#D9D9D9"/>
<circle cx="196.576" cy="60.3537" r="6.80585" transform="rotate(21 196.576 60.3537)" fill="#D9D9D9"/>
<circle cx="102.854" cy="103.84" r="6.80585" transform="rotate(21 102.854 103.84)" fill="#D9D9D9"/>
<circle cx="89.5606" cy="138.469" r="6.80585" transform="rotate(21 89.5606 138.469)" fill="#D9D9D9"/>
<circle cx="149.715" cy="82.0971" r="6.80585" transform="rotate(21 149.715 82.0971)" fill="#D9D9D9"/>
<circle cx="136.422" cy="116.726" r="6.80585" transform="rotate(21 136.422 116.726)" fill="#D9D9D9"/>
<circle cx="123.129" cy="151.355" r="6.80585" transform="rotate(21 123.129 151.355)" fill="#D9D9D9"/>
</g>
</svg>
