<svg width="272" height="262" viewBox="0 0 272 262" fill="none" xmlns="http://www.w3.org/2000/svg">
<g style="mix-blend-mode:soft-light" filter="url(#filter0_d_8_283)">
<circle cx="109.168" cy="83.8579" r="6.80585" transform="rotate(21 109.168 83.8579)" fill="#D9D9D9"/>
<circle cx="122.461" cy="49.2289" r="6.80585" transform="rotate(21 122.461 49.2289)" fill="#D9D9D9"/>
<circle cx="95.8753" cy="118.487" r="6.80585" transform="rotate(21 95.8753 118.487)" fill="#D9D9D9"/>
<circle cx="82.5823" cy="153.116" r="6.80585" transform="rotate(21 82.5823 153.116)" fill="#D9D9D9"/>
<circle cx="142.737" cy="96.7438" r="6.80585" transform="rotate(21 142.737 96.7438)" fill="#D9D9D9"/>
<circle cx="196.581" cy="157.144" r="6.80585" transform="rotate(21 196.581 157.144)" fill="#D9D9D9"/>
<circle cx="136.427" cy="213.516" r="6.80585" transform="rotate(21 136.427 213.516)" fill="#D9D9D9"/>
<circle cx="62.3069" cy="105.601" r="6.80585" transform="rotate(21 62.3069 105.601)" fill="#D9D9D9"/>
<circle cx="49.0139" cy="140.23" r="6.80585" transform="rotate(21 49.0139 140.23)" fill="#D9D9D9"/>
<circle cx="223.166" cy="87.8861" r="6.80585" transform="rotate(21 223.166 87.8861)" fill="#D9D9D9"/>
<circle cx="129.444" cy="131.373" r="6.80585" transform="rotate(21 129.444 131.373)" fill="#D9D9D9"/>
<circle cx="116.151" cy="166.002" r="6.80585" transform="rotate(21 116.151 166.002)" fill="#D9D9D9"/>
<circle cx="176.305" cy="109.629" r="6.80585" transform="rotate(21 176.305 109.629)" fill="#D9D9D9"/>
<circle cx="163.012" cy="144.258" r="6.80585" transform="rotate(21 163.012 144.258)" fill="#D9D9D9"/>
<circle cx="149.719" cy="178.887" r="6.80585" transform="rotate(21 149.719 178.887)" fill="#D9D9D9"/>
</g>
<defs>
<filter id="filter0_d_8_283" x="0.706055" y="0.921204" width="270.768" height="260.903" filterUnits="userSpaceOnUse" color-interpolation-filters="sRGB">
<feFlood flood-opacity="0" result="BackgroundImageFix"/>
<feColorMatrix in="SourceAlpha" type="matrix" values="0 0 0 0 0 0 0 0 0 0 0 0 0 0 0 0 0 0 127 0" result="hardAlpha"/>
<feOffset/>
<feGaussianBlur stdDeviation="20.75"/>
<feComposite in2="hardAlpha" operator="out"/>
<feColorMatrix type="matrix" values="0 0 0 0 1 0 0 0 0 1 0 0 0 0 1 0 0 0 0.7 0"/>
<feBlend mode="soft-light" in2="BackgroundImageFix" result="effect1_dropShadow_8_283"/>
<feBlend mode="normal" in="SourceGraphic" in2="effect1_dropShadow_8_283" result="shape"/>
</filter>
</defs>
</svg>
